<svg xmlns="http://www.w3.org/2000/svg" width="1950" height="900" viewBox="0 0 1950 900">
        <defs>
          <linearGradient id="bgGrad" x1="0%" y1="0%" x2="100%" y2="100%">
            <stop offset="0%" stop-color="#f7f5ef"/>
            <stop offset="100%" stop-color="#eef5f6"/>
          </linearGradient>
          <linearGradient id="headerGrad" x1="0%" y1="0%" x2="100%" y2="0%">
            <stop offset="0%" stop-color="#ffffff"/>
            <stop offset="100%" stop-color="#f1f7f8"/>
          </linearGradient>
          <linearGradient id="engineGrad" x1="0%" y1="0%" x2="100%" y2="100%">
            <stop offset="0%" stop-color="#f2f8f9"/>
            <stop offset="100%" stop-color="#ffffff"/>
          </linearGradient>
          <radialGradient id="orbCoral" cx="0%" cy="0%" r="100%">
            <stop offset="0%" stop-color="#e7a997" stop-opacity="0.55"/>
            <stop offset="100%" stop-color="#e7a997" stop-opacity="0"/>
          </radialGradient>
          <radialGradient id="orbTeal" cx="100%" cy="100%" r="100%">
            <stop offset="0%" stop-color="#b9d6d9" stop-opacity="0.65"/>
            <stop offset="100%" stop-color="#b9d6d9" stop-opacity="0"/>
          </radialGradient>
          <filter id="shadow" x="-20%" y="-20%" width="140%" height="140%">
            <feDropShadow dx="0" dy="12" stdDeviation="14" flood-color="#9fb1b4" flood-opacity="0.16"/>
          </filter>
          <marker id="arrow" viewBox="0 0 10 10" refX="8" refY="5" markerWidth="9" markerHeight="9" orient="auto-start-reverse">
            <path d="M 0 0 L 10 5 L 0 10 z" fill="#6f8f92"/>
          </marker>
          <marker id="arrowGold" viewBox="0 0 10 10" refX="8" refY="5" markerWidth="8" markerHeight="8" orient="auto-start-reverse">
            <path d="M 0 0 L 10 5 L 0 10 z" fill="#b48a1e"/>
          </marker>
          <marker id="arrowCoral" viewBox="0 0 10 10" refX="8" refY="5" markerWidth="8" markerHeight="8" orient="auto-start-reverse">
            <path d="M 0 0 L 10 5 L 0 10 z" fill="#c15d43"/>
          </marker>
        </defs>
        <rect x="0" y="0" width="1950" height="900" fill="url(#bgGrad)"/><circle cx="110" cy="90" r="220" fill="url(#orbCoral)"/><circle cx="1830" cy="800" r="260" fill="url(#orbTeal)"/><rect x="60" y="40" width="1830" height="108" rx="30" fill="url(#headerGrad)" stroke="#dce4e3" stroke-width="1" filter="url(#shadow)"/><text x="96" y="96" font-size="48" font-weight="850" fill="#17323a" font-family="Avenir Next, Avenir, Helvetica Neue, Arial, sans-serif" text-anchor="start"><tspan x="96" dy="0">Information Field Theory for Cardiovascular Reconstruction</tspan></text><text x="96" y="134" font-size="22" font-weight="400" fill="#466068" font-family="Avenir Next, Avenir, Helvetica Neue, Arial, sans-serif" text-anchor="start"><tspan x="96" dy="0">Objective: recover moving cardiovascular geometry, velocity, and pressure from multimodal imaging with</tspan><tspan x="96" dy="28.16">quantified uncertainty.</tspan></text><g><rect x="1508" y="70" width="312" height="40" rx="20.0" fill="#e5f1f2"/><text x="1664.0" y="96.0" font-size="15" font-weight="700" fill="#2d6f75" font-family="Avenir Next, Avenir, Helvetica Neue, Arial, sans-serif" text-anchor="middle"><tspan x="1664.0" dy="0">proposal-scale overview</tspan></text></g><line x1="603" y1="350" x2="625" y2="350" stroke="#95afb1" stroke-width="4" stroke-linecap="round" marker-end="url(#arrow)"/><line x1="1335" y1="350" x2="1354" y2="350" stroke="#95afb1" stroke-width="4" stroke-linecap="round" marker-end="url(#arrow)"/><rect x="60" y="175" width="540" height="355" rx="30" fill="#ffffff" stroke="#dce3df" stroke-width="1" filter="url(#shadow)"/><text x="90" y="213" font-size="16" font-weight="800" fill="#6b7f85" font-family="Avenir Next, Avenir, Helvetica Neue, Arial, sans-serif" text-anchor="start" letter-spacing="1.6"><tspan x="90" dy="0">Clinical challenge and data</tspan></text><text x="90" y="257" font-size="31" font-weight="850" fill="#17323a" font-family="Avenir Next, Avenir, Helvetica Neue, Arial, sans-serif" text-anchor="start"><tspan x="90" dy="0">No single modality fully</tspan><tspan x="90" dy="39.68">resolves patient-specific</tspan><tspan x="90" dy="39.68">flow.</tspan></text><text x="90" y="313" font-size="18" font-weight="400" fill="#486068" font-family="Avenir Next, Avenir, Helvetica Neue, Arial, sans-serif" text-anchor="start"><tspan x="90" dy="0">Measurements are noisy, spatially averaged,</tspan><tspan x="90" dy="23.04">partial, and often misregistered across time or</tspan><tspan x="90" dy="23.04">modality.</tspan></text><rect x="88" y="355" width="150" height="118" rx="22" fill="#edf6f7" stroke="#2d6f75" stroke-opacity="0.35"/>
    <g transform="translate(106,371) scale(0.95)">
      <rect x="6" y="20" width="88" height="58" rx="18" fill="#f6fbfb" stroke="#2d6f75" stroke-width="4"/>
      <circle cx="50" cy="49" r="16" fill="none" stroke="#2d6f75" stroke-width="6"/>
      <rect x="52" y="44" width="46" height="10" rx="5" fill="#2d6f75" opacity="0.22"/>
      <rect x="84" y="39" width="28" height="20" rx="10" fill="#2d6f75"/>
    </g>
    <text x="104" y="443" font-size="19" font-weight="800" fill="#17323a" font-family="Avenir Next, Avenir, Helvetica Neue, Arial, sans-serif" text-anchor="start"><tspan x="104" dy="0">PC-MRI</tspan></text><text x="104" y="467" font-size="14" font-weight="400" fill="#506970" font-family="Avenir Next, Avenir, Helvetica Neue, Arial, sans-serif" text-anchor="start"><tspan x="104" dy="0">phase-based</tspan><tspan x="104" dy="17.92">velocity snapshots</tspan></text><rect x="254" y="355" width="150" height="118" rx="22" fill="#faf5e8" stroke="#b48a1e" stroke-opacity="0.35"/>
    <g transform="translate(278,369) scale(0.92)">
      <polygon points="16,62 48,44 81,58 49,76" fill="#f6f2e6" stroke="#b48a1e" stroke-width="4"/>
      <polygon points="16,62 16,24 48,8 48,44" fill="#fcf8ef" stroke="#b48a1e" stroke-width="4"/>
      <polygon points="48,44 48,8 81,22 81,58" fill="#f6ecd0" stroke="#b48a1e" stroke-width="4"/>
      <path d="M26 52 C36 46, 44 46, 56 34" fill="none" stroke="#b48a1e" stroke-width="5" marker-end="url(#arrowGold)"/>
      <path d="M39 62 C47 56, 56 54, 69 42" fill="none" stroke="#b48a1e" stroke-width="5" marker-end="url(#arrowGold)"/>
    </g>
    <text x="270" y="443" font-size="19" font-weight="800" fill="#17323a" font-family="Avenir Next, Avenir, Helvetica Neue, Arial, sans-serif" text-anchor="start"><tspan x="270" dy="0">4D Flow MRI</tspan></text><text x="270" y="467" font-size="14" font-weight="400" fill="#506970" font-family="Avenir Next, Avenir, Helvetica Neue, Arial, sans-serif" text-anchor="start"><tspan x="270" dy="0">time-resolved</tspan><tspan x="270" dy="17.92">whole-volume flow</tspan></text><rect x="420" y="355" width="150" height="118" rx="22" fill="#fbefeb" stroke="#c15d43" stroke-opacity="0.35"/>
    <g transform="translate(444,371) scale(0.92)">
      <path d="M20 18 L52 8 L70 28 L36 38 Z" fill="#d77a61" opacity="0.22" stroke="#c15d43" stroke-width="4"/>
      <rect x="52" y="8" width="18" height="48" rx="9" fill="#c15d43"/>
      <path d="M20 42 Q52 68 84 42" fill="none" stroke="#c15d43" stroke-width="4"/>
      <path d="M24 42 Q52 60 80 42" fill="none" stroke="#c15d43" stroke-width="3"/>
      <path d="M28 42 Q52 52 76 42" fill="none" stroke="#c15d43" stroke-width="2.5"/>
      <path d="M12 62 C30 54, 48 54, 74 72" fill="none" stroke="#c15d43" stroke-width="5" marker-end="url(#arrowCoral)"/>
    </g>
    <text x="436" y="443" font-size="19" font-weight="800" fill="#17323a" font-family="Avenir Next, Avenir, Helvetica Neue, Arial, sans-serif" text-anchor="start"><tspan x="436" dy="0">Doppler Echo</tspan></text><text x="436" y="467" font-size="14" font-weight="400" fill="#506970" font-family="Avenir Next, Avenir, Helvetica Neue, Arial, sans-serif" text-anchor="start"><tspan x="436" dy="0">fast line-of-sight</tspan><tspan x="436" dy="17.92">velocity data</tspan></text><g><rect x="88" y="491" width="170" height="34" rx="17.0" fill="#eef4f4"/><text x="173.0" y="514.0" font-size="15" font-weight="700" fill="#526a71" font-family="Avenir Next, Avenir, Helvetica Neue, Arial, sans-serif" text-anchor="middle"><tspan x="173.0" dy="0">unknown BCs</tspan></text></g><g><rect x="268" y="491" width="150" height="34" rx="17.0" fill="#eef4f4"/><text x="343.0" y="514.0" font-size="15" font-weight="700" fill="#526a71" font-family="Avenir Next, Avenir, Helvetica Neue, Arial, sans-serif" text-anchor="middle"><tspan x="343.0" dy="0">co-registration</tspan></text></g><g><rect x="428" y="491" width="142" height="34" rx="17.0" fill="#eef4f4"/><text x="499.0" y="514.0" font-size="15" font-weight="700" fill="#526a71" font-family="Avenir Next, Avenir, Helvetica Neue, Arial, sans-serif" text-anchor="middle"><tspan x="499.0" dy="0">hidden physics</tspan></text></g><rect x="630" y="175" width="700" height="355" rx="30" fill="url(#engineGrad)" stroke="#d7e4e6" stroke-width="1" filter="url(#shadow)"/><text x="660" y="213" font-size="16" font-weight="800" fill="#6b7f85" font-family="Avenir Next, Avenir, Helvetica Neue, Arial, sans-serif" text-anchor="start" letter-spacing="1.6"><tspan x="660" dy="0">Information Field Theory engine</tspan></text><text x="660" y="249" font-size="29" font-weight="850" fill="#17323a" font-family="Avenir Next, Avenir, Helvetica Neue, Arial, sans-serif" text-anchor="start"><tspan x="660" dy="0">Fuse physical laws and multimodal</tspan><tspan x="660" dy="37.12">observations in a Bayesian inverse problem</tspan><tspan x="660" dy="37.12">over fields.</tspan></text><rect x="656" y="303" width="196" height="132" rx="22" fill="#edf6f7" stroke="#2d6f75" stroke-opacity="0.35"/><text x="674" y="335" font-size="18" font-weight="800" fill="#17323a" font-family="Avenir Next, Avenir, Helvetica Neue, Arial, sans-serif" text-anchor="start"><tspan x="674" dy="0">Physics-informed</tspan><tspan x="674" dy="23.04">priors</tspan></text><g><circle cx="674" cy="366.1" r="4.5" fill="#2d6f75"/><text x="688" y="371" font-size="14" font-weight="400" fill="#4a6269" font-family="Avenir Next, Avenir, Helvetica Neue, Arial, sans-serif" text-anchor="start"><tspan x="688" dy="0">Eikonal and level-</tspan><tspan x="688" dy="17.92">set geometry</tspan></text><circle cx="674" cy="406.3" r="4.5" fill="#2d6f75"/><text x="688" y="411.2" font-size="14" font-weight="400" fill="#4a6269" font-family="Avenir Next, Avenir, Helvetica Neue, Arial, sans-serif" text-anchor="start"><tspan x="688" dy="0">Continuity and</tspan><tspan x="688" dy="17.92">Navier-Stokes</tspan></text><circle cx="674" cy="446.5" r="4.5" fill="#2d6f75"/><text x="688" y="451.4" font-size="14" font-weight="400" fill="#4a6269" font-family="Avenir Next, Avenir, Helvetica Neue, Arial, sans-serif" text-anchor="start"><tspan x="688" dy="0">Model-form and</tspan><tspan x="688" dy="17.92">boundary uncertainty</tspan></text></g><line x1="754" y1="435" x2="980" y2="473" stroke="#2d6f75" stroke-width="2" stroke-linecap="round" marker-end="url(#arrow)"/><rect x="882" y="303" width="196" height="132" rx="22" fill="#faf5e8" stroke="#b48a1e" stroke-opacity="0.35"/><text x="900" y="335" font-size="18" font-weight="800" fill="#17323a" font-family="Avenir Next, Avenir, Helvetica Neue, Arial, sans-serif" text-anchor="start"><tspan x="900" dy="0">Measurement</tspan><tspan x="900" dy="23.04">operators</tspan></text><g><circle cx="900" cy="366.1" r="4.5" fill="#b48a1e"/><text x="914" y="371" font-size="14" font-weight="400" fill="#4a6269" font-family="Avenir Next, Avenir, Helvetica Neue, Arial, sans-serif" text-anchor="start"><tspan x="914" dy="0">PC-MRI, 4D Flow MRI,</tspan><tspan x="914" dy="17.92">Echo</tspan></text><circle cx="900" cy="406.3" r="4.5" fill="#b48a1e"/><text x="914" y="411.2" font-size="14" font-weight="400" fill="#4a6269" font-family="Avenir Next, Avenir, Helvetica Neue, Arial, sans-serif" text-anchor="start"><tspan x="914" dy="0">noise-aware</tspan><tspan x="914" dy="17.92">likelihoods</tspan></text><circle cx="900" cy="446.5" r="4.5" fill="#b48a1e"/><text x="914" y="451.4" font-size="14" font-weight="400" fill="#4a6269" font-family="Avenir Next, Avenir, Helvetica Neue, Arial, sans-serif" text-anchor="start"><tspan x="914" dy="0">hierarchical</tspan><tspan x="914" dy="17.92">Bayesian co-</tspan><tspan x="914" dy="17.92">registration</tspan></text></g><line x1="980" y1="435" x2="980" y2="473" stroke="#b48a1e" stroke-width="2" stroke-linecap="round" marker-end="url(#arrow)"/><rect x="1108" y="303" width="196" height="132" rx="22" fill="#fbefeb" stroke="#c15d43" stroke-opacity="0.35"/><text x="1126" y="335" font-size="18" font-weight="800" fill="#17323a" font-family="Avenir Next, Avenir, Helvetica Neue, Arial, sans-serif" text-anchor="start"><tspan x="1126" dy="0">Representation and</tspan><tspan x="1126" dy="23.04">inference</tspan></text><g><circle cx="1126" cy="366.1" r="4.5" fill="#c15d43"/><text x="1140" y="371" font-size="14" font-weight="400" fill="#4a6269" font-family="Avenir Next, Avenir, Helvetica Neue, Arial, sans-serif" text-anchor="start"><tspan x="1140" dy="0">spatial bases and</tspan><tspan x="1140" dy="17.92">time dynamics</tspan></text><circle cx="1126" cy="406.3" r="4.5" fill="#c15d43"/><text x="1140" y="411.2" font-size="14" font-weight="400" fill="#4a6269" font-family="Avenir Next, Avenir, Helvetica Neue, Arial, sans-serif" text-anchor="start"><tspan x="1140" dy="0">persistent /</tspan><tspan x="1140" dy="17.92">preconditioned SGLD</tspan></text><circle cx="1126" cy="446.5" r="4.5" fill="#c15d43"/><text x="1140" y="451.4" font-size="14" font-weight="400" fill="#4a6269" font-family="Avenir Next, Avenir, Helvetica Neue, Arial, sans-serif" text-anchor="start"><tspan x="1140" dy="0">amortized</tspan><tspan x="1140" dy="17.92">variational</tspan><tspan x="1140" dy="17.92">inference</tspan></text></g><line x1="1206" y1="435" x2="980" y2="473" stroke="#c15d43" stroke-width="2" stroke-linecap="round" marker-end="url(#arrow)"/><rect x="714" y="431" width="532" height="126" rx="28" fill="#153a43" stroke="#0f2d34" filter="url(#shadow)"/>
    <g transform="translate(734,447) scale(0.95)">
      <path d="M18 80 C45 28, 104 28, 134 56 C162 82, 213 85, 246 46"
            fill="none" stroke="#cfe6ea" stroke-width="36" stroke-linecap="round"/>
      <path d="M18 80 C45 28, 104 28, 134 56 C162 82, 213 85, 246 46"
            fill="none" stroke="#2d6f75" stroke-width="12" stroke-linecap="round"/>
      <path d="M27 78 C60 36, 101 38, 126 55" fill="none" stroke="#f7f6f2" stroke-width="6" opacity="0.9"/>
      <path d="M140 60 C170 80, 206 79, 236 52" fill="none" stroke="#f7f6f2" stroke-width="6" opacity="0.9"/>
      <path d="M34 79 C56 49, 84 43, 113 48" fill="none" stroke="#c15d43" stroke-width="5" marker-end="url(#arrowCoral)"/>
      <path d="M138 61 C165 76, 191 74, 224 55" fill="none" stroke="#c15d43" stroke-width="5" marker-end="url(#arrowCoral)"/>
      <circle cx="111" cy="48" r="8" fill="#b48a1e"/>
      <circle cx="179" cy="74" r="7" fill="#b48a1e"/>
    </g>
    <text x="999" y="475" font-size="26" font-weight="850" fill="#f6fbfb" font-family="Avenir Next, Avenir, Helvetica Neue, Arial, sans-serif" text-anchor="start"><tspan x="999" dy="0">Joint posterior over fields</tspan><tspan x="999" dy="33.28">and parameters</tspan></text><text x="999" y="523" font-size="17" font-weight="600" fill="#d9ecef" font-family="Avenir Next, Avenir, Helvetica Neue, Arial, sans-serif" text-anchor="start"><tspan x="999" dy="0">geometry | motion | velocity |</tspan><tspan x="999" dy="21.76">pressure | hyperparameters</tspan></text><g><rect x="664" y="570" width="178" height="34" rx="17.0" fill="#e4f1f3"/><text x="753.0" y="593.0" font-size="15" font-weight="700" fill="#2d6f75" font-family="Avenir Next, Avenir, Helvetica Neue, Arial, sans-serif" text-anchor="middle"><tspan x="753.0" dy="0">no CFD solver loop</tspan></text></g><g><rect x="854" y="570" width="188" height="34" rx="17.0" fill="#e8f0ef"/><text x="948.0" y="593.0" font-size="15" font-weight="700" fill="#425a61" font-family="Avenir Next, Avenir, Helvetica Neue, Arial, sans-serif" text-anchor="middle"><tspan x="948.0" dy="0">ill-posed problems</tspan></text></g><g><rect x="1056" y="570" width="242" height="34" rx="17.0" fill="#fbf2e8"/><text x="1177.0" y="593.0" font-size="15" font-weight="700" fill="#8a6720" font-family="Avenir Next, Avenir, Helvetica Neue, Arial, sans-serif" text-anchor="middle"><tspan x="1177.0" dy="0">uncertainty-aware reconstruction</tspan></text></g><rect x="1360" y="175" width="530" height="355" rx="30" fill="#ffffff" stroke="#dde4df" stroke-width="1" filter="url(#shadow)"/><text x="1390" y="213" font-size="16" font-weight="800" fill="#6b7f85" font-family="Avenir Next, Avenir, Helvetica Neue, Arial, sans-serif" text-anchor="start" letter-spacing="1.6"><tspan x="1390" dy="0">Validated outputs and impact</tspan></text><text x="1390" y="253" font-size="28" font-weight="850" fill="#17323a" font-family="Avenir Next, Avenir, Helvetica Neue, Arial, sans-serif" text-anchor="start"><tspan x="1390" dy="0">Proposal deliverable:</tspan><tspan x="1390" dy="35.84">uncertainty-aware hemodynamic</tspan><tspan x="1390" dy="35.84">reconstructions that can support</tspan><tspan x="1390" dy="35.84">clinical analysis.</tspan></text><rect x="1388" y="313" width="474" height="102" rx="24" fill="#eef6f7" stroke="#2d6f75" stroke-opacity="0.28"/>
    <g transform="translate(1394,323) scale(0.72)">
      <path d="M18 80 C45 28, 104 28, 134 56 C162 82, 213 85, 246 46"
            fill="none" stroke="#cfe6ea" stroke-width="36" stroke-linecap="round"/>
      <path d="M18 80 C45 28, 104 28, 134 56 C162 82, 213 85, 246 46"
            fill="none" stroke="#2d6f75" stroke-width="12" stroke-linecap="round"/>
      <path d="M27 78 C60 36, 101 38, 126 55" fill="none" stroke="#f7f6f2" stroke-width="6" opacity="0.9"/>
      <path d="M140 60 C170 80, 206 79, 236 52" fill="none" stroke="#f7f6f2" stroke-width="6" opacity="0.9"/>
      <path d="M34 79 C56 49, 84 43, 113 48" fill="none" stroke="#c15d43" stroke-width="5" marker-end="url(#arrowCoral)"/>
      <path d="M138 61 C165 76, 191 74, 224 55" fill="none" stroke="#c15d43" stroke-width="5" marker-end="url(#arrowCoral)"/>
      <circle cx="111" cy="48" r="8" fill="#b48a1e"/>
      <circle cx="179" cy="74" r="7" fill="#b48a1e"/>
    </g>
    <g><circle cx="1580" cy="337.4" r="4.5" fill="#2d6f75"/><text x="1594" y="343" font-size="16" font-weight="400" fill="#2c3f46" font-family="Avenir Next, Avenir, Helvetica Neue, Arial, sans-serif" text-anchor="start"><tspan x="1594" dy="0">posterior geometry,</tspan><tspan x="1594" dy="20.48">velocity, and pressure</tspan><tspan x="1594" dy="20.48">fields</tspan></text><circle cx="1580" cy="405.4" r="4.5" fill="#2d6f75"/><text x="1594" y="411.0" font-size="16" font-weight="400" fill="#2c3f46" font-family="Avenir Next, Avenir, Helvetica Neue, Arial, sans-serif" text-anchor="start"><tspan x="1594" dy="0">uncertainty for pressure</tspan><tspan x="1594" dy="20.48">drop and wall metrics</tspan></text><circle cx="1580" cy="453.4" r="4.5" fill="#2d6f75"/><text x="1594" y="459.0" font-size="16" font-weight="400" fill="#2c3f46" font-family="Avenir Next, Avenir, Helvetica Neue, Arial, sans-serif" text-anchor="start"><tspan x="1594" dy="0">model comparison and</tspan><tspan x="1594" dy="20.48">protocol design insight</tspan></text></g><text x="1390" y="447" font-size="18" font-weight="800" fill="#17323a" font-family="Avenir Next, Avenir, Helvetica Neue, Arial, sans-serif" text-anchor="start"><tspan x="1390" dy="0">Trust-building path</tspan></text><g><rect x="1388" y="467" width="136" height="54" rx="20" fill="#f8fbfb" stroke="#2d6f75" stroke-width="1.5"/><text x="1410" y="501" font-size="21" font-weight="800" fill="#163038" font-family="Avenir Next, Avenir, Helvetica Neue, Arial, sans-serif" text-anchor="start"><tspan x="1410" dy="0">Synthetic</tspan></text><text x="1410" y="534" font-size="16" font-weight="400" fill="#39525b" font-family="Avenir Next, Avenir, Helvetica Neue, Arial, sans-serif" text-anchor="start"><tspan x="1410" dy="0">known truth</tspan></text></g><g><rect x="1556" y="467" width="136" height="54" rx="20" fill="#fefaf2" stroke="#b48a1e" stroke-width="1.5"/><text x="1578" y="501" font-size="21" font-weight="800" fill="#163038" font-family="Avenir Next, Avenir, Helvetica Neue, Arial, sans-serif" text-anchor="start"><tspan x="1578" dy="0">In vitro</tspan></text><text x="1578" y="534" font-size="16" font-weight="400" fill="#39525b" font-family="Avenir Next, Avenir, Helvetica Neue, Arial, sans-serif" text-anchor="start"><tspan x="1578" dy="0">phantoms + PIV/PTV</tspan></text></g><g><rect x="1724" y="467" width="138" height="54" rx="20" fill="#fdf3f0" stroke="#c15d43" stroke-width="1.5"/><text x="1746" y="501" font-size="21" font-weight="800" fill="#163038" font-family="Avenir Next, Avenir, Helvetica Neue, Arial, sans-serif" text-anchor="start"><tspan x="1746" dy="0">Clinical</tspan></text><text x="1746" y="534" font-size="16" font-weight="400" fill="#39525b" font-family="Avenir Next, Avenir, Helvetica Neue, Arial, sans-serif" text-anchor="start"><tspan x="1746" dy="0">retrospective data</tspan></text></g><line x1="1524" y1="494" x2="1554" y2="494" stroke="#95afb1" stroke-width="3" stroke-linecap="round" marker-end="url(#arrow)"/><line x1="1692" y1="494" x2="1722" y2="494" stroke="#95afb1" stroke-width="3" stroke-linecap="round" marker-end="url(#arrow)"/><g><rect x="1388" y="538" width="150" height="34" rx="17.0" fill="#eef4f4"/><text x="1463.0" y="561.0" font-size="15" font-weight="700" fill="#425a61" font-family="Avenir Next, Avenir, Helvetica Neue, Arial, sans-serif" text-anchor="middle"><tspan x="1463.0" dy="0">clinical decisions</tspan></text></g><g><rect x="1548" y="538" width="170" height="34" rx="17.0" fill="#eef4f4"/><text x="1633.0" y="561.0" font-size="15" font-weight="700" fill="#425a61" font-family="Avenir Next, Avenir, Helvetica Neue, Arial, sans-serif" text-anchor="middle"><tspan x="1633.0" dy="0">open-source GPU code</tspan></text></g><g><rect x="1728" y="538" width="134" height="34" rx="17.0" fill="#eef4f4"/><text x="1795.0" y="561.0" font-size="15" font-weight="700" fill="#425a61" font-family="Avenir Next, Avenir, Helvetica Neue, Arial, sans-serif" text-anchor="middle"><tspan x="1795.0" dy="0">benchmarks</tspan></text></g><text x="60" y="555" font-size="17" font-weight="800" fill="#6b7f85" font-family="Avenir Next, Avenir, Helvetica Neue, Arial, sans-serif" text-anchor="start" letter-spacing="1.8"><tspan x="60" dy="0">Four specific aims</tspan></text><g><rect x="60" y="575" width="435" height="255" rx="26" fill="#ffffff" stroke="#d9dfdb" stroke-width="1" filter="url(#shadow)"/><rect x="60" y="575" width="435" height="12" rx="26" fill="#2d6f75"/><circle cx="102" cy="627" r="21" fill="#e5f1f2" stroke="#2d6f75" stroke-width="2"/><text x="102" y="635" font-size="22" font-weight="800" fill="#2d6f75" font-family="Avenir Next, Avenir, Helvetica Neue, Arial, sans-serif" text-anchor="middle"><tspan x="102" dy="0">1</tspan></text><text x="135" y="615" font-size="16" font-weight="800" fill="#6a7d84" font-family="Avenir Next, Avenir, Helvetica Neue, Arial, sans-serif" text-anchor="start" letter-spacing="1.4"><tspan x="135" dy="0">Specific Aim 1</tspan></text><text x="135" y="645" font-size="25" font-weight="800" fill="#17323a" font-family="Avenir Next, Avenir, Helvetica Neue, Arial, sans-serif" text-anchor="start"><tspan x="135" dy="0">Formulate the inverse</tspan><tspan x="135" dy="32.0">problem</tspan></text><g><circle cx="88" cy="691.05" r="4.5" fill="#2d6f75"/><text x="102" y="697" font-size="17" font-weight="400" fill="#2c3f46" font-family="Avenir Next, Avenir, Helvetica Neue, Arial, sans-serif" text-anchor="start"><tspan x="102" dy="0">physics-informed priors for</tspan><tspan x="102" dy="21.76">moving geometry and flow</tspan></text><circle cx="88" cy="741.55" r="4.5" fill="#2d6f75"/><text x="102" y="747.5" font-size="17" font-weight="400" fill="#2c3f46" font-family="Avenir Next, Avenir, Helvetica Neue, Arial, sans-serif" text-anchor="start"><tspan x="102" dy="0">MRI and Echo measurement</tspan><tspan x="102" dy="21.76">operators</tspan></text><circle cx="88" cy="792.05" r="4.5" fill="#2d6f75"/><text x="102" y="798.0" font-size="17" font-weight="400" fill="#2c3f46" font-family="Avenir Next, Avenir, Helvetica Neue, Arial, sans-serif" text-anchor="start"><tspan x="102" dy="0">hierarchical Bayesian co-</tspan><tspan x="102" dy="21.76">registration</tspan></text></g></g><g><rect x="515" y="575" width="435" height="255" rx="26" fill="#ffffff" stroke="#d9dfdb" stroke-width="1" filter="url(#shadow)"/><rect x="515" y="575" width="435" height="12" rx="26" fill="#7c9d88"/><circle cx="557" cy="627" r="21" fill="#ebf3ed" stroke="#7c9d88" stroke-width="2"/><text x="557" y="635" font-size="22" font-weight="800" fill="#7c9d88" font-family="Avenir Next, Avenir, Helvetica Neue, Arial, sans-serif" text-anchor="middle"><tspan x="557" dy="0">2</tspan></text><text x="590" y="615" font-size="16" font-weight="800" fill="#6a7d84" font-family="Avenir Next, Avenir, Helvetica Neue, Arial, sans-serif" text-anchor="start" letter-spacing="1.4"><tspan x="590" dy="0">Specific Aim 2</tspan></text><text x="590" y="645" font-size="25" font-weight="800" fill="#17323a" font-family="Avenir Next, Avenir, Helvetica Neue, Arial, sans-serif" text-anchor="start"><tspan x="590" dy="0">Parameterize time-</tspan><tspan x="590" dy="32.0">evolving fields</tspan></text><g><circle cx="543" cy="691.05" r="4.5" fill="#7c9d88"/><text x="557" y="697" font-size="17" font-weight="400" fill="#2c3f46" font-family="Avenir Next, Avenir, Helvetica Neue, Arial, sans-serif" text-anchor="start"><tspan x="557" dy="0">spatial bases with boundary</tspan><tspan x="557" dy="21.76">conditions</tspan></text><circle cx="543" cy="741.55" r="4.5" fill="#7c9d88"/><text x="557" y="747.5" font-size="17" font-weight="400" fill="#2c3f46" font-family="Avenir Next, Avenir, Helvetica Neue, Arial, sans-serif" text-anchor="start"><tspan x="557" dy="0">dynamic latent-state evolution</tspan></text><circle cx="543" cy="770.8" r="4.5" fill="#7c9d88"/><text x="557" y="776.75" font-size="17" font-weight="400" fill="#2c3f46" font-family="Avenir Next, Avenir, Helvetica Neue, Arial, sans-serif" text-anchor="start"><tspan x="557" dy="0">study convergence and</tspan><tspan x="557" dy="21.76">adaptivity</tspan></text></g></g><g><rect x="970" y="575" width="435" height="255" rx="26" fill="#ffffff" stroke="#d9dfdb" stroke-width="1" filter="url(#shadow)"/><rect x="970" y="575" width="435" height="12" rx="26" fill="#c15d43"/><circle cx="1012" cy="627" r="21" fill="#faece8" stroke="#c15d43" stroke-width="2"/><text x="1012" y="635" font-size="22" font-weight="800" fill="#c15d43" font-family="Avenir Next, Avenir, Helvetica Neue, Arial, sans-serif" text-anchor="middle"><tspan x="1012" dy="0">3</tspan></text><text x="1045" y="615" font-size="16" font-weight="800" fill="#6a7d84" font-family="Avenir Next, Avenir, Helvetica Neue, Arial, sans-serif" text-anchor="start" letter-spacing="1.4"><tspan x="1045" dy="0">Specific Aim 3</tspan></text><text x="1045" y="645" font-size="25" font-weight="800" fill="#17323a" font-family="Avenir Next, Avenir, Helvetica Neue, Arial, sans-serif" text-anchor="start"><tspan x="1045" dy="0">Scale posterior</tspan><tspan x="1045" dy="32.0">inference</tspan></text><g><circle cx="998" cy="691.05" r="4.5" fill="#c15d43"/><text x="1012" y="697" font-size="17" font-weight="400" fill="#2c3f46" font-family="Avenir Next, Avenir, Helvetica Neue, Arial, sans-serif" text-anchor="start"><tspan x="1012" dy="0">persistent and preconditioned</tspan><tspan x="1012" dy="21.76">SGLD</tspan></text><circle cx="998" cy="741.55" r="4.5" fill="#c15d43"/><text x="1012" y="747.5" font-size="17" font-weight="400" fill="#2c3f46" font-family="Avenir Next, Avenir, Helvetica Neue, Arial, sans-serif" text-anchor="start"><tspan x="1012" dy="0">amortized variational inference</tspan></text><circle cx="998" cy="770.8" r="4.5" fill="#c15d43"/><text x="1012" y="776.75" font-size="17" font-weight="400" fill="#2c3f46" font-family="Avenir Next, Avenir, Helvetica Neue, Arial, sans-serif" text-anchor="start"><tspan x="1012" dy="0">batched, distributed, GPU-ready</tspan><tspan x="1012" dy="21.76">algorithms</tspan></text></g></g><g><rect x="1425" y="575" width="435" height="255" rx="26" fill="#ffffff" stroke="#d9dfdb" stroke-width="1" filter="url(#shadow)"/><rect x="1425" y="575" width="435" height="12" rx="26" fill="#b48a1e"/><circle cx="1467" cy="627" r="21" fill="#faf2de" stroke="#b48a1e" stroke-width="2"/><text x="1467" y="635" font-size="22" font-weight="800" fill="#b48a1e" font-family="Avenir Next, Avenir, Helvetica Neue, Arial, sans-serif" text-anchor="middle"><tspan x="1467" dy="0">4</tspan></text><text x="1500" y="615" font-size="16" font-weight="800" fill="#6a7d84" font-family="Avenir Next, Avenir, Helvetica Neue, Arial, sans-serif" text-anchor="start" letter-spacing="1.4"><tspan x="1500" dy="0">Specific Aim 4</tspan></text><text x="1500" y="645" font-size="25" font-weight="800" fill="#17323a" font-family="Avenir Next, Avenir, Helvetica Neue, Arial, sans-serif" text-anchor="start"><tspan x="1500" dy="0">Verify, validate, and</tspan><tspan x="1500" dy="32.0">demonstrate</tspan></text><g><circle cx="1453" cy="691.05" r="4.5" fill="#b48a1e"/><text x="1467" y="697" font-size="17" font-weight="400" fill="#2c3f46" font-family="Avenir Next, Avenir, Helvetica Neue, Arial, sans-serif" text-anchor="start"><tspan x="1467" dy="0">synthetic data with known</tspan><tspan x="1467" dy="21.76">ground truth</tspan></text><circle cx="1453" cy="741.55" r="4.5" fill="#b48a1e"/><text x="1467" y="747.5" font-size="17" font-weight="400" fill="#2c3f46" font-family="Avenir Next, Avenir, Helvetica Neue, Arial, sans-serif" text-anchor="start"><tspan x="1467" dy="0">in vitro aneurysm phantoms with</tspan><tspan x="1467" dy="21.76">PIV/PTV</tspan></text><circle cx="1453" cy="792.05" r="4.5" fill="#b48a1e"/><text x="1467" y="798.0" font-size="17" font-weight="400" fill="#2c3f46" font-family="Avenir Next, Avenir, Helvetica Neue, Arial, sans-serif" text-anchor="start"><tspan x="1467" dy="0">retrospective clinical datasets</tspan></text></g></g></svg>