<?xml version="1.0" encoding="UTF-8"?>
<svg xmlns="http://www.w3.org/2000/svg" width="1600" height="900" viewBox="0 0 1600 900">
<rect x="0" y="0" width="1600" height="900" rx="24" ry="24" fill="#F7F1E8" fill-opacity="1.0" />
<circle cx="1460" cy="120" r="220" fill="rgba(147, 197, 253, 0.160)" fill-opacity="1.0" />
<circle cx="118" cy="786" r="164" fill="rgba(252, 211, 77, 0.160)" fill-opacity="1.0" />
<circle cx="760" cy="814" r="132" fill="rgba(196, 181, 253, 0.120)" fill-opacity="1.0" />
<rect x="70" y="44" width="164" height="34" rx="17.0" ry="17.0" fill="#E8EEF8" fill-opacity="1.0" stroke="#C9D8F3" stroke-width="1" />
<text x="152.0" y="66.0" font-family="Inter, Arial, sans-serif" font-size="14" font-weight="600" fill="#1D4ED8" text-anchor="middle">Agent Pattern</text>
<text x="70" y="112" font-family="Inter, Arial, sans-serif" font-size="58" font-weight="800" fill="#0F172A" text-anchor="start">Worker-Critic Pattern</text>
<text x="70" y="166" font-family="Inter, Arial, sans-serif" font-size="25" font-weight="400" fill="#334155" text-anchor="start"><tspan x="70" dy="0">A worker drafts, a critic reviews, feedback loops back into revision, and the</tspan><tspan x="70" dy="34">process stops only on approval.</tspan></text>
<rect x="60" y="234" width="1480" height="586" rx="36" ry="36" fill="#FFFCF8" fill-opacity="1.0" stroke="#E6DDD1" stroke-width="1" />
<rect x="92" y="258" width="212" height="34" rx="17.0" ry="17.0" fill="#EEE9FF" fill-opacity="1.0" stroke="#D8C8FF" stroke-width="1" />
<text x="198.0" y="280.0" font-family="Inter, Arial, sans-serif" font-size="15" font-weight="600" fill="#6D28D9" text-anchor="middle">Repeat Until Approved</text>
<text x="92" y="322" font-family="Inter, Arial, sans-serif" font-size="22" font-weight="600" fill="#475569" text-anchor="start">Same worker. Same critic. One visible loop.</text>
<rect x="112" y="364" width="258" height="204" rx="28" ry="28" fill="#EEF5FF" fill-opacity="1.0" stroke="#C9D8F3" stroke-width="1" />
<rect x="138" y="388" width="136" height="28" rx="14.0" ry="14.0" fill="#DCEAFE" fill-opacity="1.0" stroke="#BCD2F5" stroke-width="1" />
<text x="206.0" y="407.0" font-family="Inter, Arial, sans-serif" font-size="14" font-weight="600" fill="#1D4ED8" text-anchor="middle">Persistent Role</text>
<text x="138" y="456" font-family="Inter, Arial, sans-serif" font-size="34" font-weight="750" fill="#102A43" text-anchor="start">Worker</text>
<text x="138" y="494" font-family="Inter, Arial, sans-serif" font-size="20" font-weight="600" fill="#274C77" text-anchor="start">Makes the next draft</text>
<text x="138" y="526" font-family="Inter, Arial, sans-serif" font-size="18" font-weight="400" fill="#3B82F6" text-anchor="start"><tspan x="138" dy="0">Keeps the task and</tspan><tspan x="138" dy="24">context alive</tspan></text>
<rect x="452" y="326" width="376" height="270" rx="30" ry="30" fill="#FFFFFF" fill-opacity="1.0" stroke="#DFE6EE" stroke-width="1" />
<rect x="552" y="346" width="174" height="28" rx="14.0" ry="14.0" fill="#F3F4F6" fill-opacity="1.0" stroke="#E5E7EB" stroke-width="1" />
<text x="639.0" y="365.0" font-family="Inter, Arial, sans-serif" font-size="14" font-weight="600" fill="#475569" text-anchor="middle">Artifact Across Rounds</text>
<text x="640" y="408" font-family="Inter, Arial, sans-serif" font-size="31" font-weight="760" fill="#0F172A" text-anchor="middle">Draft gets sharper</text>
<rect x="504" y="464" width="118" height="96" rx="18" ry="18" fill="#FFFFFF" fill-opacity="1.0" stroke="#D8DEE8" stroke-width="1" />
<rect x="516" y="476" width="94" height="12" rx="6" ry="6" fill="#E8EEF6" fill-opacity="1.0" />
<rect x="520" y="502" width="28.2" height="16" rx="8" ry="8" fill="#BFDBFE" fill-opacity="1.0" />
<rect x="553.6" y="502" width="28.2" height="16" rx="8" ry="8" fill="#FDE68A" fill-opacity="1.0" />
<rect x="520" y="530" width="86" height="8" rx="4" ry="4" fill="#E2E8F0" fill-opacity="1.0" />
<rect x="520" y="544" width="67.67999999999999" height="8" rx="4" ry="4" fill="#E2E8F0" fill-opacity="1.0" />
<rect x="520" y="558" width="20.68" height="16" rx="10" ry="10" fill="#BAE6FD" fill-opacity="1.0" />
<rect x="546.08" y="558" width="22.56" height="16" rx="10" ry="10" fill="#DDD6FE" fill-opacity="1.0" />
<rect x="576.16" y="558" width="15.040000000000001" height="16" rx="10" ry="10" fill="#FCA5A5" fill-opacity="1.0" />
<rect x="580" y="438" width="132" height="108" rx="18" ry="18" fill="#FFFFFF" fill-opacity="1.0" stroke="#D8DEE8" stroke-width="1" />
<rect x="592" y="450" width="108" height="12" rx="6" ry="6" fill="#E8EEF6" fill-opacity="1.0" />
<rect x="596" y="476" width="34.56" height="16" rx="8" ry="8" fill="#93C5FD" fill-opacity="1.0" />
<rect x="637.36" y="476" width="30.240000000000002" height="16" rx="8" ry="8" fill="#FCD34D" fill-opacity="1.0" />
<rect x="596" y="504" width="36.720000000000006" height="36.96" rx="12" ry="12" fill="#CFFAFE" fill-opacity="1.0" />
<rect x="637.36" y="504" width="45.36" height="20" rx="10" ry="10" fill="#DBEAFE" fill-opacity="1.0" />
<rect x="637.36" y="534" width="32.4" height="14" rx="7" ry="7" fill="#E2E8F0" fill-opacity="1.0" />
<rect x="637.36" y="558" width="25.919999999999998" height="10" rx="5" ry="5" fill="#E2E8F0" fill-opacity="1.0" />
<rect x="660" y="410" width="136" height="120" rx="18" ry="18" fill="#FFFFFF" fill-opacity="1.0" stroke="#D8DEE8" stroke-width="1" />
<rect x="672" y="422" width="112" height="12" rx="6" ry="6" fill="#E8EEF6" fill-opacity="1.0" />
<rect x="676" y="448" width="35.84" height="18" rx="9" ry="9" fill="#60A5FA" fill-opacity="1.0" />
<rect x="721.28" y="448" width="29.12" height="18" rx="9" ry="9" fill="#F59E0B" fill-opacity="1.0" />
<rect x="676" y="478" width="38.080000000000005" height="38.400000000000006" rx="14" ry="14" fill="#E0F2FE" fill-opacity="1.0" />
<rect x="730.08" y="478" width="49.91999999999996" height="24" rx="10" ry="10" fill="#DCFCE7" fill-opacity="1.0" />
<rect x="730.08" y="510" width="21.91999999999996" height="15" rx="7" ry="7" fill="#E2E8F0" fill-opacity="1.0" />
<rect x="730.08" y="534" width="18" height="8" rx="4" ry="4" fill="#BFDBFE" fill-opacity="1.0" />
<text x="560" y="586" font-family="Inter, Arial, sans-serif" font-size="16" font-weight="600" fill="#64748B" text-anchor="middle">draft 1</text>
<text x="646" y="586" font-family="Inter, Arial, sans-serif" font-size="16" font-weight="600" fill="#64748B" text-anchor="middle">draft 2</text>
<text x="730" y="586" font-family="Inter, Arial, sans-serif" font-size="16" font-weight="700" fill="#15803D" text-anchor="middle">approved draft</text>
<rect x="920" y="364" width="270" height="204" rx="28" ry="28" fill="#FFF4D9" fill-opacity="1.0" stroke="#F4D27A" stroke-width="1" />
<rect x="948" y="388" width="136" height="28" rx="14.0" ry="14.0" fill="#FDE68A" fill-opacity="1.0" stroke="#F3C85C" stroke-width="1" />
<text x="1016.0" y="407.0" font-family="Inter, Arial, sans-serif" font-size="14" font-weight="600" fill="#92400E" text-anchor="middle">Persistent Role</text>
<text x="948" y="456" font-family="Inter, Arial, sans-serif" font-size="34" font-weight="750" fill="#7C2D12" text-anchor="start">Critic</text>
<text x="948" y="494" font-family="Inter, Arial, sans-serif" font-size="20" font-weight="600" fill="#92400E" text-anchor="start">Reviews against the rubric</text>
<text x="948" y="526" font-family="Inter, Arial, sans-serif" font-size="18" font-weight="400" fill="#B45309" text-anchor="start"><tspan x="948" dy="0">Sends fixes back or</tspan><tspan x="948" dy="24">says Approved</tspan></text>
<line x1="370" y1="470" x2="452" y2="470" stroke="#2563EB" stroke-width="8" stroke-linecap="round" />
<polygon points="452,470 433.0,457.65 433.0,482.35" fill="#2563EB" />
<rect x="388" y="430" width="96" height="28" rx="14.0" ry="14.0" fill="#EAF2FF" fill-opacity="1.0" stroke="#C9D8F3" stroke-width="1" />
<text x="436.0" y="449.0" font-family="Inter, Arial, sans-serif" font-size="14" font-weight="600" fill="#1D4ED8" text-anchor="middle">draft</text>
<line x1="828" y1="470" x2="902" y2="470" stroke="#D97706" stroke-width="8" stroke-linecap="round" />
<polygon points="902,470 883.0,457.65 883.0,482.35" fill="#D97706" />
<rect x="842" y="430" width="112" height="28" rx="14.0" ry="14.0" fill="#FFF4D9" fill-opacity="1.0" stroke="#F4D27A" stroke-width="1" />
<text x="898.0" y="449.0" font-family="Inter, Arial, sans-serif" font-size="14" font-weight="600" fill="#B45309" text-anchor="middle">review</text>
<path d="M 1204 468 L 1260 412 L 1316 468 L 1260 524 Z" fill="#FFFFFF" stroke="#CBD5E1" stroke-width="2" stroke-linecap="round" stroke-linejoin="round" />
<text x="1260" y="476" font-family="Inter, Arial, sans-serif" font-size="20" font-weight="700" fill="#0F172A" text-anchor="middle">Approved?</text>
<line x1="1190" y1="468" x2="1204" y2="468" stroke="#D97706" stroke-width="7" stroke-linecap="round" />
<polygon points="1204,468 1188.0,457.6 1188.0,478.4" fill="#D97706" />
<line x1="1316" y1="468" x2="1320" y2="468" stroke="#16A34A" stroke-width="8" stroke-linecap="round" />
<polygon points="1320,468 1301.0,455.65 1301.0,480.35" fill="#16A34A" />
<text x="1298" y="446" font-family="Inter, Arial, sans-serif" font-size="16" font-weight="700" fill="#15803D" text-anchor="middle">yes</text>
<line x1="1260" y1="524" x2="1260" y2="638" stroke="#7C3AED" stroke-width="7" stroke-linecap="round" />
<line x1="1260" y1="638" x2="250" y2="638" stroke="#7C3AED" stroke-width="7" stroke-linecap="round" />
<line x1="250" y1="638" x2="250" y2="568" stroke="#7C3AED" stroke-width="7" stroke-linecap="round" />
<polygon points="250,568 239.6,584.0 260.4,584.0" fill="#7C3AED" />
<text x="752" y="614" font-family="Inter, Arial, sans-serif" font-size="20" font-weight="700" fill="#6D28D9" text-anchor="middle">no: targeted feedback -&gt; revise</text>
<rect x="1320" y="352" width="180" height="292" rx="28" ry="28" fill="#F2FCF5" fill-opacity="1.0" stroke="#B7E3C6" stroke-width="1" />
<rect x="1340" y="378" width="140" height="30" rx="15.0" ry="15.0" fill="#DCFCE7" fill-opacity="1.0" stroke="#B7E3C6" stroke-width="1" />
<text x="1410.0" y="398.0" font-family="Inter, Arial, sans-serif" font-size="14" font-weight="600" fill="#166534" text-anchor="middle">Approved Output</text>
<rect x="1348" y="434" width="122" height="118" rx="18" ry="18" fill="#FFFFFF" fill-opacity="1.0" stroke="#D8DEE8" stroke-width="1" />
<rect x="1360" y="446" width="98" height="12" rx="6" ry="6" fill="#E8EEF6" fill-opacity="1.0" />
<rect x="1364" y="472" width="31.36" height="18" rx="9" ry="9" fill="#60A5FA" fill-opacity="1.0" />
<rect x="1403.12" y="472" width="25.48" height="18" rx="9" ry="9" fill="#F59E0B" fill-opacity="1.0" />
<rect x="1364" y="502" width="33.32" height="37.6" rx="14" ry="14" fill="#E0F2FE" fill-opacity="1.0" />
<rect x="1413.32" y="502" width="40.680000000000064" height="24" rx="10" ry="10" fill="#DCFCE7" fill-opacity="1.0" />
<rect x="1413.32" y="534" width="20" height="15" rx="7" ry="7" fill="#E2E8F0" fill-opacity="1.0" />
<rect x="1413.32" y="558" width="18" height="8" rx="4" ry="4" fill="#BFDBFE" fill-opacity="1.0" />
<rect x="1364" y="578" width="92" height="32" rx="16.0" ry="16.0" fill="#22C55E" fill-opacity="1.0" stroke="#4ADE80" stroke-width="1" />
<text x="1410.0" y="599.0" font-family="Inter, Arial, sans-serif" font-size="15" font-weight="600" fill="#F0FDF4" text-anchor="middle">Approved</text>
<text x="1410" y="628" font-family="Inter, Arial, sans-serif" font-size="20" font-weight="700" fill="#166534" text-anchor="middle">Loop stops here</text>
</svg>