<svg xmlns="http://www.w3.org/2000/svg" width="1950" height="900" viewBox="0 0 1950 900">
        <defs>
          <marker id="arrow" viewBox="0 0 10 10" refX="8" refY="5" markerWidth="9" markerHeight="9" orient="auto-start-reverse">
            <path d="M 0 0 L 10 5 L 0 10 z" fill="#6f8f92"/>
          </marker>
          <marker id="arrowGold" viewBox="0 0 10 10" refX="8" refY="5" markerWidth="8" markerHeight="8" orient="auto-start-reverse">
            <path d="M 0 0 L 10 5 L 0 10 z" fill="#b48a1e"/>
          </marker>
          <marker id="arrowCoral" viewBox="0 0 10 10" refX="8" refY="5" markerWidth="8" markerHeight="8" orient="auto-start-reverse">
            <path d="M 0 0 L 10 5 L 0 10 z" fill="#c15d43"/>
          </marker>
        </defs>
        <rect x="0" y="0" width="1950" height="900" fill="#f7f6f2"/><rect x="60" y="40" width="1830" height="108" rx="30" fill="#ffffff" stroke="#d9dfdb" stroke-width="1"/><text x="96" y="94" font-size="40" font-weight="850" fill="#17323a" font-family="Avenir Next, Avenir, Helvetica Neue, Arial, sans-serif" text-anchor="start"><tspan x="96" dy="0">Information Field Theory for Uncertainty-Aware Cardiovascular Reconstruction</tspan></text><text x="96" y="132" font-size="20" font-weight="400" fill="#466068" font-family="Avenir Next, Avenir, Helvetica Neue, Arial, sans-serif" text-anchor="start"><tspan x="96" dy="0">Objective: reconstruct cardiac structure and hemodynamic fields from advanced medical imaging with</tspan><tspan x="96" dy="25.6">quantified uncertainty.</tspan></text><line x1="603" y1="350" x2="625" y2="350" stroke="#95afb1" stroke-width="4" stroke-linecap="round" marker-end="url(#arrow)"/><line x1="1335" y1="350" x2="1354" y2="350" stroke="#95afb1" stroke-width="4" stroke-linecap="round" marker-end="url(#arrow)"/><rect x="60" y="175" width="540" height="355" rx="30" fill="#ffffff" stroke="#dce3df" stroke-width="1"/><text x="90" y="213" font-size="16" font-weight="800" fill="#6b7f85" font-family="Avenir Next, Avenir, Helvetica Neue, Arial, sans-serif" text-anchor="start" letter-spacing="1.6"><tspan x="90" dy="0">Clinical challenge and data</tspan></text><text x="90" y="253" font-size="29" font-weight="850" fill="#17323a" font-family="Avenir Next, Avenir, Helvetica Neue, Arial, sans-serif" text-anchor="start"><tspan x="90" dy="0">Advanced imaging is</tspan><tspan x="90" dy="37.12">informative but incomplete.</tspan></text><rect x="88" y="373" width="150" height="118" rx="22" fill="#edf6f7" stroke="#2d6f75" stroke-opacity="0.35"/>
    <g transform="translate(106,389) scale(0.95)">
      <rect x="6" y="20" width="88" height="58" rx="18" fill="#f6fbfb" stroke="#2d6f75" stroke-width="4"/>
      <circle cx="50" cy="49" r="16" fill="none" stroke="#2d6f75" stroke-width="6"/>
      <rect x="52" y="44" width="46" height="10" rx="5" fill="#2d6f75" opacity="0.22"/>
      <rect x="84" y="39" width="28" height="20" rx="10" fill="#2d6f75"/>
    </g>
    <text x="104" y="471" font-size="20" font-weight="800" fill="#17323a" font-family="Avenir Next, Avenir, Helvetica Neue, Arial, sans-serif" text-anchor="start"><tspan x="104" dy="0">PC-MRI</tspan></text><rect x="254" y="373" width="150" height="118" rx="22" fill="#faf5e8" stroke="#b48a1e" stroke-opacity="0.35"/>
    <g transform="translate(278,387) scale(0.92)">
      <polygon points="16,62 48,44 81,58 49,76" fill="#f6f2e6" stroke="#b48a1e" stroke-width="4"/>
      <polygon points="16,62 16,24 48,8 48,44" fill="#fcf8ef" stroke="#b48a1e" stroke-width="4"/>
      <polygon points="48,44 48,8 81,22 81,58" fill="#f6ecd0" stroke="#b48a1e" stroke-width="4"/>
      <path d="M26 52 C36 46, 44 46, 56 34" fill="none" stroke="#b48a1e" stroke-width="5" marker-end="url(#arrowGold)"/>
      <path d="M39 62 C47 56, 56 54, 69 42" fill="none" stroke="#b48a1e" stroke-width="5" marker-end="url(#arrowGold)"/>
    </g>
    <text x="270" y="471" font-size="20" font-weight="800" fill="#17323a" font-family="Avenir Next, Avenir, Helvetica Neue, Arial, sans-serif" text-anchor="start"><tspan x="270" dy="0">4D Flow MRI</tspan></text><rect x="420" y="373" width="150" height="118" rx="22" fill="#fbefeb" stroke="#c15d43" stroke-opacity="0.35"/>
    <g transform="translate(444,389) scale(0.92)">
      <path d="M20 18 L52 8 L70 28 L36 38 Z" fill="#d77a61" opacity="0.22" stroke="#c15d43" stroke-width="4"/>
      <rect x="52" y="8" width="18" height="48" rx="9" fill="#c15d43"/>
      <path d="M20 42 Q52 68 84 42" fill="none" stroke="#c15d43" stroke-width="4"/>
      <path d="M24 42 Q52 60 80 42" fill="none" stroke="#c15d43" stroke-width="3"/>
      <path d="M28 42 Q52 52 76 42" fill="none" stroke="#c15d43" stroke-width="2.5"/>
      <path d="M12 62 C30 54, 48 54, 74 72" fill="none" stroke="#c15d43" stroke-width="5" marker-end="url(#arrowCoral)"/>
    </g>
    <text x="436" y="471" font-size="20" font-weight="800" fill="#17323a" font-family="Avenir Next, Avenir, Helvetica Neue, Arial, sans-serif" text-anchor="start"><tspan x="436" dy="0">Doppler Echo</tspan></text><rect x="630" y="175" width="700" height="355" rx="30" fill="#ffffff" stroke="#d7e4e6" stroke-width="1"/><text x="660" y="213" font-size="16" font-weight="800" fill="#6b7f85" font-family="Avenir Next, Avenir, Helvetica Neue, Arial, sans-serif" text-anchor="start" letter-spacing="1.6"><tspan x="660" dy="0">Information Field Theory engine</tspan></text><text x="660" y="251" font-size="27" font-weight="850" fill="#17323a" font-family="Avenir Next, Avenir, Helvetica Neue, Arial, sans-serif" text-anchor="start"><tspan x="660" dy="0">Fuse physical laws and multimodal imaging in</tspan><tspan x="660" dy="34.56">a Bayesian inverse problem over fields.</tspan></text><rect x="656" y="311" width="196" height="116" rx="22" fill="#edf6f7" stroke="#2d6f75" stroke-opacity="0.35"/><text x="674" y="343" font-size="18" font-weight="800" fill="#17323a" font-family="Avenir Next, Avenir, Helvetica Neue, Arial, sans-serif" text-anchor="start"><tspan x="674" dy="0">Physics-informed</tspan><tspan x="674" dy="23.04">priors</tspan></text><text x="674" y="381" font-size="17" font-weight="400" fill="#4a6269" font-family="Avenir Next, Avenir, Helvetica Neue, Arial, sans-serif" text-anchor="start"><tspan x="674" dy="0">Eikonal,</tspan><tspan x="674" dy="21.76">continuity,</tspan><tspan x="674" dy="21.76">Navier-Stokes</tspan></text><line x1="754" y1="427" x2="980" y2="427" stroke="#2d6f75" stroke-width="2" stroke-linecap="round" marker-end="url(#arrow)"/><rect x="882" y="311" width="196" height="116" rx="22" fill="#faf5e8" stroke="#b48a1e" stroke-opacity="0.35"/><text x="900" y="343" font-size="18" font-weight="800" fill="#17323a" font-family="Avenir Next, Avenir, Helvetica Neue, Arial, sans-serif" text-anchor="start"><tspan x="900" dy="0">Measurement</tspan><tspan x="900" dy="23.04">operators</tspan></text><text x="900" y="381" font-size="17" font-weight="400" fill="#4a6269" font-family="Avenir Next, Avenir, Helvetica Neue, Arial, sans-serif" text-anchor="start"><tspan x="900" dy="0">MRI / Echo</tspan><tspan x="900" dy="21.76">likelihoods</tspan><tspan x="900" dy="21.76">+ co-registration</tspan></text><line x1="980" y1="427" x2="980" y2="427" stroke="#b48a1e" stroke-width="2" stroke-linecap="round" marker-end="url(#arrow)"/><rect x="1108" y="311" width="196" height="116" rx="22" fill="#fbefeb" stroke="#c15d43" stroke-opacity="0.35"/><text x="1126" y="343" font-size="18" font-weight="800" fill="#17323a" font-family="Avenir Next, Avenir, Helvetica Neue, Arial, sans-serif" text-anchor="start"><tspan x="1126" dy="0">Representation and</tspan><tspan x="1126" dy="23.04">inference</tspan></text><text x="1126" y="381" font-size="17" font-weight="400" fill="#4a6269" font-family="Avenir Next, Avenir, Helvetica Neue, Arial, sans-serif" text-anchor="start"><tspan x="1126" dy="0">spatial dynamics,</tspan><tspan x="1126" dy="21.76">SGLD, amortized VI</tspan></text><line x1="1206" y1="427" x2="980" y2="427" stroke="#c15d43" stroke-width="2" stroke-linecap="round" marker-end="url(#arrow)"/><rect x="730" y="415" width="500" height="100" rx="26" fill="#153a43" stroke="#0f2d34" filter="url(#shadow)"/>
    <g transform="translate(740,427) scale(0.7)">
      <path d="M18 80 C45 28, 104 28, 134 56 C162 82, 213 85, 246 46"
            fill="none" stroke="#cfe6ea" stroke-width="36" stroke-linecap="round"/>
      <path d="M18 80 C45 28, 104 28, 134 56 C162 82, 213 85, 246 46"
            fill="none" stroke="#2d6f75" stroke-width="12" stroke-linecap="round"/>
      <path d="M27 78 C60 36, 101 38, 126 55" fill="none" stroke="#f7f6f2" stroke-width="6" opacity="0.9"/>
      <path d="M140 60 C170 80, 206 79, 236 52" fill="none" stroke="#f7f6f2" stroke-width="6" opacity="0.9"/>
      <path d="M34 79 C56 49, 84 43, 113 48" fill="none" stroke="#c15d43" stroke-width="5" marker-end="url(#arrowCoral)"/>
      <path d="M138 61 C165 76, 191 74, 224 55" fill="none" stroke="#c15d43" stroke-width="5" marker-end="url(#arrowCoral)"/>
      <circle cx="111" cy="48" r="8" fill="#b48a1e"/>
      <circle cx="179" cy="74" r="7" fill="#b48a1e"/>
    </g>
    <text x="935" y="455" font-size="21" font-weight="850" fill="#f6fbfb" font-family="Avenir Next, Avenir, Helvetica Neue, Arial, sans-serif" text-anchor="start"><tspan x="935" dy="0">Posterior over fields</tspan><tspan x="935" dy="26.88">+ parameters</tspan></text><rect x="1360" y="175" width="530" height="355" rx="30" fill="#ffffff" stroke="#dde4df" stroke-width="1"/><text x="1390" y="213" font-size="16" font-weight="800" fill="#6b7f85" font-family="Avenir Next, Avenir, Helvetica Neue, Arial, sans-serif" text-anchor="start" letter-spacing="1.6"><tspan x="1390" dy="0">Validated outputs and impact</tspan></text><text x="1390" y="251" font-size="26" font-weight="850" fill="#17323a" font-family="Avenir Next, Avenir, Helvetica Neue, Arial, sans-serif" text-anchor="start"><tspan x="1390" dy="0">Recover posterior</tspan><tspan x="1390" dy="33.28">cardiovascular fields with</tspan><tspan x="1390" dy="33.28">quantified uncertainty.</tspan></text><rect x="1388" y="331" width="474" height="102" rx="24" fill="#eef6f7" stroke="#2d6f75" stroke-opacity="0.28"/>
    <g transform="translate(1394,341) scale(0.72)">
      <path d="M18 80 C45 28, 104 28, 134 56 C162 82, 213 85, 246 46"
            fill="none" stroke="#cfe6ea" stroke-width="36" stroke-linecap="round"/>
      <path d="M18 80 C45 28, 104 28, 134 56 C162 82, 213 85, 246 46"
            fill="none" stroke="#2d6f75" stroke-width="12" stroke-linecap="round"/>
      <path d="M27 78 C60 36, 101 38, 126 55" fill="none" stroke="#f7f6f2" stroke-width="6" opacity="0.9"/>
      <path d="M140 60 C170 80, 206 79, 236 52" fill="none" stroke="#f7f6f2" stroke-width="6" opacity="0.9"/>
      <path d="M34 79 C56 49, 84 43, 113 48" fill="none" stroke="#c15d43" stroke-width="5" marker-end="url(#arrowCoral)"/>
      <path d="M138 61 C165 76, 191 74, 224 55" fill="none" stroke="#c15d43" stroke-width="5" marker-end="url(#arrowCoral)"/>
      <circle cx="111" cy="48" r="8" fill="#b48a1e"/>
      <circle cx="179" cy="74" r="7" fill="#b48a1e"/>
    </g>
    <g><circle cx="1580" cy="354.7" r="4.5" fill="#2d6f75"/><text x="1594" y="361" font-size="18" font-weight="400" fill="#2c3f46" font-family="Avenir Next, Avenir, Helvetica Neue, Arial, sans-serif" text-anchor="start"><tspan x="1594" dy="0">geometry, velocity,</tspan><tspan x="1594" dy="23.04">pressure, and uncertainty</tspan></text><circle cx="1580" cy="407.7" r="4.5" fill="#2d6f75"/><text x="1594" y="414.0" font-size="18" font-weight="400" fill="#2c3f46" font-family="Avenir Next, Avenir, Helvetica Neue, Arial, sans-serif" text-anchor="start"><tspan x="1594" dy="0">biomarkers, decisions,</tspan><tspan x="1594" dy="23.04">and open tools</tspan></text></g><text x="1390" y="461" font-size="18" font-weight="800" fill="#17323a" font-family="Avenir Next, Avenir, Helvetica Neue, Arial, sans-serif" text-anchor="start"><tspan x="1390" dy="0">Trust-building path</tspan></text><g><rect x="1388" y="481" width="136" height="54" rx="20" fill="#f8fbfb" stroke="#2d6f75" stroke-width="1.5"/><text x="1410" y="515" font-size="21" font-weight="800" fill="#163038" font-family="Avenir Next, Avenir, Helvetica Neue, Arial, sans-serif" text-anchor="start"><tspan x="1410" dy="0">Synthetic</tspan></text><text x="1410" y="549" font-size="17" font-weight="400" fill="#39525b" font-family="Avenir Next, Avenir, Helvetica Neue, Arial, sans-serif" text-anchor="start"><tspan x="1410" dy="0">known truth</tspan></text></g><g><rect x="1556" y="481" width="136" height="54" rx="20" fill="#fefaf2" stroke="#b48a1e" stroke-width="1.5"/><text x="1578" y="515" font-size="21" font-weight="800" fill="#163038" font-family="Avenir Next, Avenir, Helvetica Neue, Arial, sans-serif" text-anchor="start"><tspan x="1578" dy="0">In vitro</tspan></text><text x="1578" y="549" font-size="17" font-weight="400" fill="#39525b" font-family="Avenir Next, Avenir, Helvetica Neue, Arial, sans-serif" text-anchor="start"><tspan x="1578" dy="0">phantoms + PIV/PTV</tspan></text></g><g><rect x="1724" y="481" width="138" height="54" rx="20" fill="#fdf3f0" stroke="#c15d43" stroke-width="1.5"/><text x="1746" y="515" font-size="21" font-weight="800" fill="#163038" font-family="Avenir Next, Avenir, Helvetica Neue, Arial, sans-serif" text-anchor="start"><tspan x="1746" dy="0">Clinical</tspan></text><text x="1746" y="549" font-size="17" font-weight="400" fill="#39525b" font-family="Avenir Next, Avenir, Helvetica Neue, Arial, sans-serif" text-anchor="start"><tspan x="1746" dy="0">retrospective data</tspan></text></g><line x1="1524" y1="508" x2="1554" y2="508" stroke="#95afb1" stroke-width="3" stroke-linecap="round" marker-end="url(#arrow)"/><line x1="1692" y1="508" x2="1722" y2="508" stroke="#95afb1" stroke-width="3" stroke-linecap="round" marker-end="url(#arrow)"/><text x="60" y="566" font-size="17" font-weight="800" fill="#6b7f85" font-family="Avenir Next, Avenir, Helvetica Neue, Arial, sans-serif" text-anchor="start" letter-spacing="1.8"><tspan x="60" dy="0">Four specific aims</tspan></text><g><rect x="60" y="586" width="435" height="240" rx="26" fill="#ffffff" stroke="#d9dfdb" stroke-width="1"/><rect x="60" y="586" width="435" height="12" rx="26" fill="#2d6f75"/><circle cx="102" cy="638" r="21" fill="#e5f1f2" stroke="#2d6f75" stroke-width="2"/><text x="102" y="646" font-size="22" font-weight="800" fill="#2d6f75" font-family="Avenir Next, Avenir, Helvetica Neue, Arial, sans-serif" text-anchor="middle"><tspan x="102" dy="0">1</tspan></text><text x="135" y="626" font-size="16" font-weight="800" fill="#6a7d84" font-family="Avenir Next, Avenir, Helvetica Neue, Arial, sans-serif" text-anchor="start" letter-spacing="1.4"><tspan x="135" dy="0">Specific Aim 1</tspan></text><text x="135" y="656" font-size="24" font-weight="800" fill="#17323a" font-family="Avenir Next, Avenir, Helvetica Neue, Arial, sans-serif" text-anchor="start"><tspan x="135" dy="0">Formulate the inverse</tspan><tspan x="135" dy="30.72">problem</tspan></text><g><circle cx="88" cy="701.7" r="4.5" fill="#2d6f75"/><text x="102" y="708" font-size="18" font-weight="400" fill="#2c3f46" font-family="Avenir Next, Avenir, Helvetica Neue, Arial, sans-serif" text-anchor="start"><tspan x="102" dy="0">priors for moving geometry and</tspan><tspan x="102" dy="23.04">flow</tspan></text><circle cx="88" cy="754.7" r="4.5" fill="#2d6f75"/><text x="102" y="761.0" font-size="18" font-weight="400" fill="#2c3f46" font-family="Avenir Next, Avenir, Helvetica Neue, Arial, sans-serif" text-anchor="start"><tspan x="102" dy="0">MRI / Echo operators and</tspan><tspan x="102" dy="23.04">Bayesian co-registration</tspan></text></g></g><g><rect x="515" y="586" width="435" height="240" rx="26" fill="#ffffff" stroke="#d9dfdb" stroke-width="1"/><rect x="515" y="586" width="435" height="12" rx="26" fill="#7c9d88"/><circle cx="557" cy="638" r="21" fill="#ebf3ed" stroke="#7c9d88" stroke-width="2"/><text x="557" y="646" font-size="22" font-weight="800" fill="#7c9d88" font-family="Avenir Next, Avenir, Helvetica Neue, Arial, sans-serif" text-anchor="middle"><tspan x="557" dy="0">2</tspan></text><text x="590" y="626" font-size="16" font-weight="800" fill="#6a7d84" font-family="Avenir Next, Avenir, Helvetica Neue, Arial, sans-serif" text-anchor="start" letter-spacing="1.4"><tspan x="590" dy="0">Specific Aim 2</tspan></text><text x="590" y="656" font-size="24" font-weight="800" fill="#17323a" font-family="Avenir Next, Avenir, Helvetica Neue, Arial, sans-serif" text-anchor="start"><tspan x="590" dy="0">Parameterize time-</tspan><tspan x="590" dy="30.72">evolving fields</tspan></text><g><circle cx="543" cy="701.7" r="4.5" fill="#7c9d88"/><text x="557" y="708" font-size="18" font-weight="400" fill="#2c3f46" font-family="Avenir Next, Avenir, Helvetica Neue, Arial, sans-serif" text-anchor="start"><tspan x="557" dy="0">boundary-aware spatial bases</tspan></text><circle cx="543" cy="732.2" r="4.5" fill="#7c9d88"/><text x="557" y="738.5" font-size="18" font-weight="400" fill="#2c3f46" font-family="Avenir Next, Avenir, Helvetica Neue, Arial, sans-serif" text-anchor="start"><tspan x="557" dy="0">dynamic parameterization of</tspan><tspan x="557" dy="23.04">time evolution</tspan></text></g></g><g><rect x="970" y="586" width="435" height="240" rx="26" fill="#ffffff" stroke="#d9dfdb" stroke-width="1"/><rect x="970" y="586" width="435" height="12" rx="26" fill="#c15d43"/><circle cx="1012" cy="638" r="21" fill="#faece8" stroke="#c15d43" stroke-width="2"/><text x="1012" y="646" font-size="22" font-weight="800" fill="#c15d43" font-family="Avenir Next, Avenir, Helvetica Neue, Arial, sans-serif" text-anchor="middle"><tspan x="1012" dy="0">3</tspan></text><text x="1045" y="626" font-size="16" font-weight="800" fill="#6a7d84" font-family="Avenir Next, Avenir, Helvetica Neue, Arial, sans-serif" text-anchor="start" letter-spacing="1.4"><tspan x="1045" dy="0">Specific Aim 3</tspan></text><text x="1045" y="656" font-size="24" font-weight="800" fill="#17323a" font-family="Avenir Next, Avenir, Helvetica Neue, Arial, sans-serif" text-anchor="start"><tspan x="1045" dy="0">Scale posterior</tspan><tspan x="1045" dy="30.72">inference</tspan></text><g><circle cx="998" cy="701.7" r="4.5" fill="#c15d43"/><text x="1012" y="708" font-size="18" font-weight="400" fill="#2c3f46" font-family="Avenir Next, Avenir, Helvetica Neue, Arial, sans-serif" text-anchor="start"><tspan x="1012" dy="0">persistent / preconditioned</tspan><tspan x="1012" dy="23.04">SGLD</tspan></text><circle cx="998" cy="754.7" r="4.5" fill="#c15d43"/><text x="1012" y="761.0" font-size="18" font-weight="400" fill="#2c3f46" font-family="Avenir Next, Avenir, Helvetica Neue, Arial, sans-serif" text-anchor="start"><tspan x="1012" dy="0">amortized VI for batched GPU</tspan><tspan x="1012" dy="23.04">inference</tspan></text></g></g><g><rect x="1425" y="586" width="435" height="240" rx="26" fill="#ffffff" stroke="#d9dfdb" stroke-width="1"/><rect x="1425" y="586" width="435" height="12" rx="26" fill="#b48a1e"/><circle cx="1467" cy="638" r="21" fill="#faf2de" stroke="#b48a1e" stroke-width="2"/><text x="1467" y="646" font-size="22" font-weight="800" fill="#b48a1e" font-family="Avenir Next, Avenir, Helvetica Neue, Arial, sans-serif" text-anchor="middle"><tspan x="1467" dy="0">4</tspan></text><text x="1500" y="626" font-size="16" font-weight="800" fill="#6a7d84" font-family="Avenir Next, Avenir, Helvetica Neue, Arial, sans-serif" text-anchor="start" letter-spacing="1.4"><tspan x="1500" dy="0">Specific Aim 4</tspan></text><text x="1500" y="656" font-size="24" font-weight="800" fill="#17323a" font-family="Avenir Next, Avenir, Helvetica Neue, Arial, sans-serif" text-anchor="start"><tspan x="1500" dy="0">Verify, validate, and</tspan><tspan x="1500" dy="30.72">demonstrate</tspan></text><g><circle cx="1453" cy="701.7" r="4.5" fill="#b48a1e"/><text x="1467" y="708" font-size="18" font-weight="400" fill="#2c3f46" font-family="Avenir Next, Avenir, Helvetica Neue, Arial, sans-serif" text-anchor="start"><tspan x="1467" dy="0">synthetic and in vitro</tspan><tspan x="1467" dy="23.04">validation</tspan></text><circle cx="1453" cy="754.7" r="4.5" fill="#b48a1e"/><text x="1467" y="761.0" font-size="18" font-weight="400" fill="#2c3f46" font-family="Avenir Next, Avenir, Helvetica Neue, Arial, sans-serif" text-anchor="start"><tspan x="1467" dy="0">clinical demonstration on</tspan><tspan x="1467" dy="23.04">retrospective data</tspan></text></g></g></svg>